<?xml version="1.0" encoding="iso-8859-1"?>
<!-- Generator: Adobe Illustrator 19.0.0, SVG Export Plug-In . SVG Version: 6.00 Build 0)  -->
<svg version="1.1" id="Capa_1" xmlns="http://www.w3.org/2000/svg" xmlns:xlink="http://www.w3.org/1999/xlink" x="0px" y="0px"
	 viewBox="0 0 512 512" style="enable-background:new 0 0 512 512;" xml:space="preserve">
<path style="fill:#FDCF84;" d="M253.745,258.39l-44.713,44.663L87.065,181.086l17.833-17.843h93.354
	c3.947,15.689,10.92,30.186,20.248,42.82l0.01,0.01l29.685,44.072L253.745,258.39z"/>
<polygon style="fill:#A0E557;" points="132.44,379.566 10.022,501.863 10.022,258.12 10.513,257.639 "/>
<path style="fill:#CEF2FF;" d="M501.977,163.243v123.019L286.376,501.863H10.022L132.44,379.566l76.593-76.512l44.713-44.663
	l63.739,94.616l69.299-102.861l29.685-44.072l0.01-0.01c6.202-9.137,16.3-27.131,20.248-42.82H501.977z"/>
<polygon style="fill:#A0E557;" points="501.977,286.262 501.977,442.893 423.663,364.578 "/>
<polygon style="fill:#FEE4BB;" points="501.977,442.893 501.977,501.863 286.376,501.863 423.663,364.578 "/>
<polygon style="fill:#FFB570;" points="104.898,163.243 87.065,181.086 10.513,257.639 10.022,258.12 10.022,163.243 "/>
<polygon style="fill:#FEE4BB;" points="227.141,284.944 132.44,379.566 10.513,257.639 104.898,163.243 "/>
<path style="fill:#FF5D5D;" d="M317.484,10.138c-67.906,0-122.959,55.052-122.959,122.959c0,10.409,1.282,20.498,3.727,30.146
	c3.947,15.689,10.92,30.186,20.248,42.82l0.01,0.01l29.685,44.072l5.55,8.245l63.739,94.616l69.299-102.861l29.685-44.072l0.01-0.01
	c6.202-9.137,16.3-27.131,20.248-42.82c2.445-9.648,3.727-19.737,3.727-30.146C440.453,65.19,385.39,10.138,317.484,10.138z"/>
<path style="fill:#FFFFFF;" d="M368.921,130.141c0,12.605-4.542,24.16-12.074,33.102c-9.432,11.208-23.558,18.332-39.358,18.332
	c-15.8,0-29.928-7.124-39.358-18.332c-7.533-8.942-12.074-20.496-12.074-33.102c0-28.407,23.027-51.434,51.434-51.434
	C345.894,78.708,368.921,101.734,368.921,130.141z"/>
<path d="M501.981,153.224h-53.031c1.007-6.628,1.521-13.359,1.521-20.122c0-73.327-59.656-132.984-132.984-132.984
	S184.503,59.773,184.503,133.101c0,6.764,0.514,13.494,1.521,20.122h-81.09c-0.026,0-0.051,0-0.077,0H10.019
	C4.486,153.223,0,157.709,0,163.242V501.84c-0.001,0.34,0.017,0.68,0.05,1.019c0.011,0.111,0.033,0.218,0.047,0.329
	c0.028,0.214,0.055,0.429,0.098,0.641c0.028,0.141,0.067,0.278,0.101,0.416c0.043,0.179,0.084,0.358,0.137,0.535
	c0.042,0.139,0.094,0.273,0.142,0.409c0.061,0.173,0.119,0.347,0.189,0.517c0.052,0.124,0.113,0.243,0.169,0.366
	c0.081,0.175,0.16,0.352,0.252,0.523c0.06,0.111,0.128,0.216,0.192,0.326c0.101,0.173,0.2,0.347,0.313,0.514
	c0.074,0.111,0.157,0.214,0.236,0.322c0.114,0.156,0.223,0.314,0.348,0.465c0.12,0.146,0.252,0.282,0.381,0.421
	c0.092,0.1,0.176,0.205,0.274,0.303c0.082,0.082,0.172,0.153,0.256,0.231c0.155,0.145,0.309,0.293,0.472,0.428
	c0.148,0.122,0.304,0.229,0.457,0.342c0.11,0.081,0.216,0.167,0.331,0.243c0.163,0.109,0.333,0.205,0.501,0.305
	c0.114,0.067,0.224,0.139,0.341,0.201c0.165,0.088,0.335,0.164,0.504,0.242c0.128,0.06,0.254,0.124,0.386,0.179
	c0.161,0.067,0.326,0.121,0.489,0.179c0.146,0.052,0.29,0.108,0.439,0.153c0.161,0.049,0.325,0.085,0.487,0.125
	c0.155,0.039,0.308,0.082,0.465,0.113c0.184,0.036,0.37,0.058,0.555,0.085c0.139,0.02,0.276,0.046,0.417,0.06
	c0.329,0.032,0.659,0.05,0.99,0.05l0,0l0,0h276.346c0.003,0,0.007,0,0.01,0s0.007,0,0.01,0h215.596
	c5.532,0,10.019-4.485,10.019-10.019v-338.62C512,157.71,507.514,153.224,501.981,153.224z M491.963,418.71l-54.132-54.133
	l54.132-54.133V418.71z M491.963,282.107L282.225,491.845H34.223l105.278-105.168c0.008-0.008,0.017-0.014,0.025-0.022
	c0.008-0.008,0.014-0.016,0.022-0.024l112.681-112.563l56.95,84.532c1.862,2.764,4.977,4.421,8.309,4.421
	c3.332,0,6.447-1.657,8.309-4.421l98.846-146.735c0.041-0.059,0.083-0.119,0.123-0.179c6.289-9.267,14.523-24.076,19.408-38.426
	h47.789v108.847H491.963z M210.342,211.88l29.541,43.864l0.94,1.396l-13.937,13.923l-97.801-97.8h61.604
	C195.061,187.111,201.646,200.073,210.342,211.88z M212.709,285.223l-80.265,80.181L24.672,257.634l80.223-80.223L212.709,285.223z
	 M118.267,379.567l-98.23,98.127V281.337L118.267,379.567z M317.488,20.155c62.279,0,112.946,50.667,112.946,112.946
	c0,9.4-1.15,18.715-3.422,27.696c-3.251,12.914-11.942,29.45-18.699,39.451c-0.053,0.075-0.105,0.15-0.156,0.227l-90.669,134.597
	l-55.344-82.148c-0.022-0.034-0.046-0.068-0.068-0.101l-5.573-8.273l-29.682-44.074c-0.109-0.163-0.225-0.325-0.347-0.482
	c-8.711-11.83-14.938-25.017-18.511-39.207c-2.27-8.975-3.42-18.289-3.42-27.686C204.541,70.822,255.208,20.155,317.488,20.155z
	 M80.706,173.262l-60.669,60.668v-60.669L80.706,173.262L80.706,173.262z M310.563,491.845l113.099-113.099l68.301,68.302v44.796
	L310.563,491.845L310.563,491.845z"/>
<path d="M317.488,191.594c11.283,0,22.317-3.088,31.909-8.929c4.727-2.877,6.225-9.041,3.347-13.768
	c-2.876-4.726-9.04-6.225-13.767-3.347c-6.453,3.929-13.883,6.006-21.489,6.006c-12.246,0-23.797-5.382-31.697-14.768
	c-6.267-7.439-9.718-16.902-9.718-26.647c0-22.837,18.579-41.415,41.415-41.415c21.337,0,39.05,15.979,41.201,37.168
	c0.56,5.504,5.461,9.527,10.98,8.955c5.504-0.559,9.514-5.474,8.955-10.979c-3.195-31.459-29.478-55.182-61.136-55.182
	c-33.885,0-61.452,27.567-61.452,61.452c0,14.462,5.126,28.51,14.428,39.553C282.175,183.611,299.316,191.594,317.488,191.594z"/>
<path d="M363.99,143.112c-5.532,0-10.019,4.485-10.019,10.019v0.2c0,5.533,4.486,10.019,10.019,10.019
	c5.532,0,10.019-4.485,10.019-10.019v-0.2C374.008,147.598,369.522,143.112,363.99,143.112z"/>
<g>
</g>
<g>
</g>
<g>
</g>
<g>
</g>
<g>
</g>
<g>
</g>
<g>
</g>
<g>
</g>
<g>
</g>
<g>
</g>
<g>
</g>
<g>
</g>
<g>
</g>
<g>
</g>
<g>
</g>
</svg>
