<svg xmlns="http://www.w3.org/2000/svg" preserveAspectRatio="none" viewBox="0 0 1440 320" style="
    transform: rotate(
180deg
);
"><path fill="#f26b41" fill-opacity="1" d="M0,160L26.7,144C53.3,128,107,96,160,80C213.3,64,267,64,320,80C373.3,96,427,128,480,149.3C533.3,171,587,181,640,181.3C693.3,181,747,171,800,144C853.3,117,907,75,960,64C1013.3,53,1067,75,1120,90.7C1173.3,107,1227,117,1280,112C1333.3,107,1387,85,1413,74.7L1440,64L1440,320L1413.3,320C1386.7,320,1333,320,1280,320C1226.7,320,1173,320,1120,320C1066.7,320,1013,320,960,320C906.7,320,853,320,800,320C746.7,320,693,320,640,320C586.7,320,533,320,480,320C426.7,320,373,320,320,320C266.7,320,213,320,160,320C106.7,320,53,320,27,320L0,320Z"></path></svg>