<svg id="Capa_1" enable-background="new 0 0 512 512" height="512" viewBox="0 0 512 512" width="512" xmlns="http://www.w3.org/2000/svg"><g><g><path d="m123.466 169.883h-66.267v-30.134c0-4.418 3.582-8 8-8h50.267c4.418 0 8 3.582 8 8z" fill="#ffce69"/><path d="m115.466 131.749h-23c4.418 0 8 3.582 8 8v28.134h23v-28.134c0-4.419-3.582-8-8-8z" fill="#ffbd61"/><path d="m454.801 167.883h-66.267v-28.134c0-4.418 3.582-8 8-8h50.267c4.418 0 8 3.582 8 8z" fill="#868eaf"/><path d="m355.401 167.883h-66.267v-28.134c0-4.418 3.582-8 8-8h50.267c4.418 0 8 3.582 8 8z" fill="#868eaf"/><path d="m446.801 131.749h-23c4.418 0 8 3.582 8 8v28.134h23v-28.134c0-4.419-3.582-8-8-8z" fill="#7d83ad"/><path d="m347.401 131.749h-23c4.418 0 8 3.582 8 8v28.134h23v-28.134c0-4.419-3.582-8-8-8z" fill="#7d83ad"/><path d="m272.566 496.218h198.801c18.299 0 33.133-14.834 33.133-33.133v-265.07c0-18.299-14.834-33.133-33.133-33.133h-198.801z" fill="#a0c8ff"/><path d="m289.134 164.883h-248.501c-18.299 0-33.133 14.834-33.133 33.133v265.07c0 18.299 14.834 33.133 33.133 33.133h248.501z" fill="#bdd3dd"/><g><g><circle cx="148.316" cy="330.551" fill="#868eaf" r="107.684"/><circle cx="148.316" cy="330.551" fill="#7d83ad" r="41.417"/></g></g><path d="m463.368 247.716h-133.101c-4.418 0-8-3.582-8-8v-33.7c0-4.418 3.582-8 8-8h133.101c4.418 0 8 3.582 8 8v33.7c0 4.418-3.582 8-8 8z" fill="#f9f5f3"/><ellipse cx="347.117" cy="305.7" fill="#868eaf" rx="24.85" ry="24.85" transform="matrix(.23 -.973 .973 .23 -30.156 573.296)"/><ellipse cx="446.518" cy="305.7" fill="#868eaf" rx="24.85" ry="24.85" transform="matrix(.233 -.973 .973 .233 45.372 668.897)"/><ellipse cx="421.668" cy="32.349" fill="#ffce69" rx="16.567" ry="16.567" transform="matrix(.23 -.973 .973 .23 293.305 435.304)"/><path d="m148.316 222.867c-3.885 0-7.721.211-11.5.612 54.064 5.74 96.184 51.485 96.184 107.072s-42.12 101.332-96.184 107.072c3.779.401 7.615.612 11.5.612 59.472 0 107.684-48.212 107.684-107.684 0-59.473-48.212-107.684-107.684-107.684z" fill="#7d83ad"/><path d="m463.368 198.016h-23c4.418 0 8 3.582 8 8v33.7c0 4.418-3.582 8-8 8h23c4.418 0 8-3.582 8-8v-33.7c0-4.419-3.582-8-8-8z" fill="#f9eae0"/><path d="m446.518 280.849c-4.151 0-8.06 1.023-11.5 2.823 7.933 4.15 13.35 12.454 13.35 22.028s-5.417 17.877-13.35 22.028c3.44 1.799 7.349 2.823 11.5 2.823 13.724 0 24.85-11.126 24.85-24.85 0-13.726-11.126-24.852-24.85-24.852z" fill="#7d83ad"/><path d="m347.117 280.849c-4.151 0-8.061 1.023-11.5 2.823 7.933 4.15 13.35 12.454 13.35 22.028s-5.417 17.877-13.35 22.028c3.439 1.799 7.349 2.823 11.5 2.823 13.724 0 24.85-11.126 24.85-24.85 0-13.726-11.126-24.852-24.85-24.852z" fill="#7d83ad"/><path d="m471.367 164.883h-23c18.299 0 33.133 14.834 33.133 33.133v265.07c0 18.299-14.834 33.133-33.133 33.133h23c18.299 0 33.133-14.834 33.133-33.133v-265.07c0-18.299-14.834-33.133-33.133-33.133z" fill="#91b2fa"/></g><g><path d="m148.316 215.367c-63.513 0-115.184 51.671-115.184 115.184 0 25.435 8.126 49.548 23.499 69.731 2.51 3.297 7.216 3.932 10.511 1.423 3.295-2.51 3.932-7.216 1.422-10.511-13.366-17.551-20.432-38.521-20.432-60.643 0-55.241 44.942-100.184 100.184-100.184s100.184 44.942 100.184 100.184-44.942 100.184-100.184 100.184c-21.795 0-42.514-6.876-59.918-19.884-3.316-2.48-8.018-1.801-10.497 1.517-2.48 3.317-1.801 8.018 1.517 10.497 20.016 14.962 43.84 22.87 68.898 22.87 63.513 0 115.184-51.671 115.184-115.184s-51.671-115.184-115.184-115.184z"/><path d="m197.233 330.551c0-26.973-21.944-48.917-48.917-48.917s-48.917 21.944-48.917 48.917 21.944 48.917 48.917 48.917 48.917-21.945 48.917-48.917zm-82.834 0c0-18.702 15.215-33.917 33.917-33.917s33.917 15.215 33.917 33.917-15.215 33.917-33.917 33.917-33.917-15.215-33.917-33.917z"/><path d="m504.5 258.349c4.142 0 7.5-3.357 7.5-7.5v-52.833c0-22.405-18.228-40.633-40.633-40.633h-9.066v-17.634c0-8.547-6.953-15.5-15.5-15.5h-50.267c-8.547 0-15.5 6.953-15.5 15.5v17.634h-18.134v-17.634c0-8.547-6.953-15.5-15.5-15.5h-50.267c-8.547 0-15.5 6.953-15.5 15.5v17.634h-150.667v-15.343l271.61-95.063c4.403 5.733 11.321 9.438 19.092 9.438 13.27 0 24.067-10.797 24.067-24.067s-10.797-24.066-24.067-24.066c-13.271 0-24.067 10.796-24.067 24.066 0 .159.009.316.012.473l-272.03 95.21c-2.718-2.35-6.25-3.783-10.117-3.783h-50.267c-8.547 0-15.5 6.953-15.5 15.5v17.634h-9.066c-22.405.001-40.633 18.228-40.633 40.634v265.069c0 22.405 18.228 40.633 40.633 40.633h430.734c22.405 0 40.633-18.228 40.633-40.633v-182.235c0-4.143-3.358-7.5-7.5-7.5s-7.5 3.357-7.5 7.5v182.235c0 14.134-11.499 25.633-25.633 25.633h-174.734v-316.335h58.767 33.134 66.267 16.566c14.134 0 25.633 11.499 25.633 25.633v52.833c0 4.142 3.358 7.5 7.5 7.5zm-82.832-235.067c4.999 0 9.067 4.067 9.067 9.066 0 5-4.067 9.067-9.067 9.067s-9.067-4.067-9.067-9.067c0-4.998 4.067-9.066 9.067-9.066zm-356.969 116.467c0-.275.224-.5.5-.5h50.267c.116 0 .217.046.302.112.005.016.008.031.014.047.051.146.125.276.184.417v17.558h-51.267zm-24.066 348.969c-14.134 0-25.633-11.499-25.633-25.633v-265.069c0-14.134 11.499-25.633 25.633-25.633h16.566 66.267 158.168v316.335zm256-331.335v-17.634c0-.275.224-.5.5-.5h50.267c.276 0 .5.225.5.5v17.634zm99.401 0v-17.634c0-.275.224-.5.5-.5h50.267c.276 0 .5.225.5.5v17.634z"/><path d="m478.868 206.016c0-8.547-6.953-15.5-15.5-15.5h-133.101c-8.547 0-15.5 6.953-15.5 15.5v33.7c0 8.547 6.953 15.5 15.5 15.5h133.101c8.547 0 15.5-6.953 15.5-15.5zm-15 33.7c0 .275-.224.5-.5.5h-133.101c-.276 0-.5-.225-.5-.5v-33.7c0-.275.224-.5.5-.5h133.101c.276 0 .5.225.5.5z"/><path d="m347.117 338.05c17.838 0 32.35-14.513 32.35-32.351s-14.512-32.35-32.35-32.35-32.35 14.512-32.35 32.35 14.512 32.351 32.35 32.351zm0-49.7c9.567 0 17.35 7.783 17.35 17.35s-7.783 17.351-17.35 17.351-17.35-7.783-17.35-17.351c0-9.567 7.783-17.35 17.35-17.35z"/><path d="m446.518 273.35c-17.838 0-32.35 14.512-32.35 32.35s14.512 32.351 32.35 32.351 32.35-14.513 32.35-32.351c0-17.839-14.513-32.35-32.35-32.35zm0 49.7c-9.567 0-17.35-7.783-17.35-17.351 0-9.566 7.783-17.35 17.35-17.35s17.35 7.783 17.35 17.35c0 9.568-7.783 17.351-17.35 17.351z"/><path d="m471.368 356.184h-149.101c-4.142 0-7.5 3.357-7.5 7.5s3.358 7.5 7.5 7.5h149.101c4.142 0 7.5-3.357 7.5-7.5s-3.358-7.5-7.5-7.5z"/><path d="m471.368 389.316h-149.101c-4.142 0-7.5 3.357-7.5 7.5s3.358 7.5 7.5 7.5h149.101c4.142 0 7.5-3.357 7.5-7.5s-3.358-7.5-7.5-7.5z"/><path d="m471.368 422.45h-149.101c-4.142 0-7.5 3.357-7.5 7.5s3.358 7.5 7.5 7.5h149.101c4.142 0 7.5-3.357 7.5-7.5s-3.358-7.5-7.5-7.5z"/></g></g></svg>