
              <svg id="sw-js-blob-svg" viewBox="0 0 100 100" xmlns="http://www.w3.org/2000/svg" version="1.1">
                    <defs> 
                      <linearGradient id="sw-gradient" x1="0" x2="1" y1="1" y2="0">
                            <stop id="stop1" stop-color="rgba(248, 117, 55, 1)" offset="0%"></stop>
                            <stop id="stop2" stop-color="#d64367" offset="100%"></stop>
                        </linearGradient>
                    </defs>
                <path fill="url(#sw-gradient)" d="M21.1,-31.8C28,-32.5,34.8,-28.3,36.6,-22.1C38.3,-16,35,-8,33.6,-0.8C32.1,6.3,32.5,12.7,29.8,17.1C27.1,21.6,21.3,24.2,15.8,27C10.3,29.8,5.2,32.8,0.7,31.6C-3.8,30.5,-7.6,25.1,-12.3,21.8C-17,18.6,-22.5,17.4,-27.3,14.1C-32,10.8,-36,5.4,-37.6,-0.9C-39.2,-7.3,-38.5,-14.5,-35.9,-21.6C-33.3,-28.7,-29,-35.7,-22.7,-35.4C-16.4,-35.1,-8.2,-27.6,-0.6,-26.7C7.1,-25.7,14.1,-31.2,21.1,-31.8Z" width="100%" height="100%" transform="translate(50 50)" stroke-width="0" style="transition: all 0.3s ease 0s;"></path>
              </svg>