
              <svg id="sw-js-blob-svg" viewBox="0 0 100 100" xmlns="http://www.w3.org/2000/svg" version="1.1">
                    <defs> 
                                                <linearGradient id="sw-gradient" x1="0" x2="1" y1="1" y2="0">
                            <stop id="stop1" stop-color="rgba(248, 117, 55, 1)" offset="0%"></stop>
                            <stop id="stop2" stop-color="#d64367" offset="100%"></stop>
                        </linearGradient>
                    </defs>
                <path fill="url(#sw-gradient)" d="M21.8,-24.9C29.6,-19.4,38.3,-13.9,40.7,-6.3C43.2,1.3,39.3,10.9,33.8,18.6C28.3,26.4,21.1,32.2,13.5,33.4C5.9,34.6,-2,31,-9.7,27.8C-17.4,24.5,-24.7,21.5,-29.2,15.8C-33.6,10.2,-35.2,1.9,-33.1,-5.1C-31,-12.1,-25.2,-17.7,-19.1,-23.4C-13,-29.2,-6.5,-35.2,0.2,-35.5C7,-35.8,14,-30.4,21.8,-24.9Z" width="100%" height="100%" transform="translate(50 50)" stroke-width="0" style="transition: all 0.3s ease 0s;"></path>
              </svg>