<svg id="Capa_1" enable-background="new 0 0 512 512" height="512" viewBox="0 0 512 512" width="512" xmlns="http://www.w3.org/2000/svg"><g><g><path d="m394.355 83.298-127.361-17.74-259.501 259.501 72.55 72.55 72.55 72.55 259.501-259.501z" fill="#fddeb0"/></g><g><path d="m412.098 210.661-259.504 259.494-14.426-14.417 252.23-252.23-17.155-123.148 21.111 2.938z" fill="#fccd7f"/></g><g><path d="m504.507 315.394c0 10.049-9.455 19.039-11.334 28.537-1.936 9.787 3.323 21.7-.411 30.705-3.799 9.162-15.98 13.85-21.432 21.994-5.494 8.206-5.196 21.243-12.154 28.2-6.957 6.957-19.995 6.66-28.2 12.154-8.143 5.452-12.832 17.632-21.994 21.431-9.004 3.734-20.917-1.525-30.704.411-9.498 1.879-18.488 11.334-28.537 11.334s-19.039-9.455-28.537-11.334c-9.787-1.936-21.7 3.323-30.705-.411-9.162-3.799-13.85-15.98-21.994-21.432-8.206-5.494-21.243-5.196-28.2-12.154-6.957-6.957-6.66-19.995-12.154-28.2-5.452-8.143-17.632-12.832-21.431-21.994-3.734-9.004 1.525-20.917-.411-30.704-1.879-9.498-11.334-18.488-11.334-28.537s9.455-19.039 11.334-28.537c1.936-9.787-3.323-21.7.411-30.705 3.799-9.162 15.98-13.85 21.432-21.994 5.494-8.206 5.196-21.243 12.154-28.2 6.957-6.957 19.995-6.66 28.2-12.154 8.143-5.452 12.832-17.632 21.993-21.431 9.004-3.734 20.917 1.525 30.704-.411 9.498-1.879 18.488-11.334 28.537-11.334s19.039 9.455 28.537 11.334c9.787 1.936 21.7-3.323 30.705.411 9.162 3.799 13.85 15.98 21.994 21.432 8.206 5.494 21.243 5.196 28.2 12.154 6.957 6.957 6.66 19.995 12.154 28.2 5.452 8.143 17.632 12.832 21.431 21.994 3.734 9.004-1.525 20.917.411 30.704 1.88 9.498 11.335 18.488 11.335 28.537z" fill="#d1f19e"/></g><g><path d="m492.764 374.632c-3.797 9.162-15.985 13.857-21.43 22-5.495 8.202-5.195 21.241-12.159 28.194-6.954 6.964-19.992 6.664-28.194 12.159-8.143 5.445-12.838 17.634-22 21.431-9.002 3.736-20.911-1.529-30.702.41-9.501 1.878-18.483 11.33-28.534 11.33-4.416 0-8.622-1.828-12.758-4.036 7.541-3.617 14.692-7.235 21.826-11.532 7.63-4.597 16.079-8.458 25.161-8.411 5.649.029 11.595 1.524 16.761-.761 6.573-2.907 9.649-9.758 13.954-15.041 5.539-6.797 12.537-7.125 20.404-9.824 3.761-1.29 9.97-3.953 12.124-7.378 1.587-2.524 2.209-5.518 2.803-8.441 1.285-6.321 2.131-11.463 6.059-16.787 2.183-2.959 5.119-5.122 7.909-7.463 7.352-6.171 10.844-13.625 11.303-23.183.422-8.785-.678-15.294 3.189-23.413 2.953-6.2 6.709-14.354 6.414-21.413-.279-6.671-6.821-11.175-9.539-16.817-2.534-5.261-2.298-11.42-1.392-17.189 1.122-7.138 1.617-14.582-4.391-19.807-2.186-1.901-4.841-3.257-7.24-4.861-5.322-3.559-7.657-5.807-9.378-12.115-2.722-9.975-2.307-22.272-12.07-28.414-3.154-1.984-7.294-2.907-10.884-3.703-6.188-1.372-11.793-4.346-16.361-9.077-3.19-3.304-5.541-7.331-8.882-10.505-5.877-5.583-9.727-13.633-16.879-17.817 7.323-.669 14.896-2.368 21.101.21 9.162 3.797 13.857 15.975 22 21.43 8.202 5.495 21.241 5.195 28.194 12.149 6.964 6.964 6.664 20.002 12.159 28.204 5.445 8.142 17.634 12.828 21.43 21.99 3.737 9.012-1.529 20.921.41 30.712 1.878 9.491 11.33 18.483 11.33 28.534s-9.451 19.033-11.33 28.534c-1.936 9.79 3.329 21.699-.408 30.701z" fill="#bbec6c"/></g><g><circle cx="349.742" cy="315.394" fill="#fdf6ec" r="112.957"/></g><g><path d="m462.702 315.396c0 62.383-50.574 112.957-112.957 112.957-14.877 0-29.084-2.878-42.092-8.103 7.153 1.429 14.547 2.168 22.11 2.168 62.383 0 112.957-50.574 112.957-112.957 0-47.507-29.333-88.16-70.865-104.854 51.792 10.27 90.847 55.969 90.847 110.789z" fill="#fae2c0"/></g><g><path d="m197.357 414.798-44.764 44.765-134.503-134.504 39.291-39.29c2.927-2.927 2.927-7.671 0-10.598-2.926-2.925-7.671-2.925-10.597 0l-44.589 44.589c-2.927 2.927-2.927 7.671 0 10.598l145.1 145.1c1.405 1.405 3.311 2.194 5.298 2.194s3.893-.789 5.298-2.194l50.062-50.063c2.927-2.927 2.927-7.671 0-10.598-2.925-2.924-7.67-2.924-10.596.001z"/><path d="m505.12 335.253c3.225-5.748 6.88-12.261 6.88-19.859 0-7.597-3.655-14.111-6.88-19.859-2.059-3.668-4.004-7.135-4.596-10.132-.633-3.198-.153-7.261.356-11.562.762-6.448 1.625-13.756-1.195-20.558-2.872-6.927-8.714-11.518-13.869-15.568-3.349-2.631-6.513-5.117-8.258-7.723-1.776-2.654-2.88-6.558-4.048-10.692-1.773-6.275-3.782-13.387-9.034-18.639-5.252-5.251-12.364-7.26-18.638-9.034-4.134-1.168-8.039-2.271-10.691-4.047-2.607-1.745-5.093-4.909-7.724-8.258-4.051-5.154-8.641-10.997-15.568-13.868-6.803-2.821-14.111-1.958-20.559-1.195-4.301.507-8.364.987-11.561.355-2.998-.593-6.463-2.538-10.132-4.596-5.748-3.226-12.262-6.88-19.859-6.88-7.598 0-14.112 3.655-19.859 6.88-3.669 2.059-7.135 4.003-10.131 4.596-3.201.632-7.261.152-11.562-.356-6.449-.762-13.757-1.626-20.559 1.195-6.927 2.872-11.517 8.714-15.567 13.868-2.632 3.35-5.117 6.513-7.724 8.258-2.653 1.776-6.557 2.879-10.691 4.047-6.275 1.774-13.387 3.784-18.639 9.035s-7.261 12.364-9.034 18.638c-1.168 4.134-2.271 8.039-4.047 10.691-1.745 2.607-4.909 5.093-8.258 7.724-5.154 4.05-10.996 8.641-13.869 15.568-2.82 6.802-1.957 14.11-1.195 20.558.508 4.301.988 8.364.355 11.563-.593 2.997-2.538 6.464-4.596 10.132-3.225 5.748-6.88 12.262-6.88 19.859 0 7.598 3.655 14.111 6.88 19.859 2.059 3.669 4.004 7.135 4.596 10.131.633 3.199.153 7.261-.355 11.562-.762 6.448-1.625 13.758 1.195 20.559 2.873 6.927 8.715 11.518 13.869 15.568 3.349 2.631 6.513 5.117 8.258 7.724 1.776 2.653 2.88 6.557 4.048 10.691 1.773 6.275 3.783 13.387 9.034 18.637 5.252 5.252 12.365 7.262 18.64 9.036 4.134 1.168 8.038 2.271 10.69 4.047 2.607 1.744 5.093 4.908 7.724 8.258 4.05 5.153 8.641 10.996 15.568 13.868 6.803 2.821 14.112 1.957 20.559 1.195 4.301-.507 8.364-.987 11.561-.355 2.998.593 6.463 2.538 10.133 4.596 5.747 3.226 12.262 6.88 19.859 6.88s14.111-3.655 19.858-6.88c3.669-2.059 7.135-4.003 10.132-4.596 3.199-.632 7.26-.153 11.561.355 6.449.762 13.758 1.625 20.559-1.195 6.927-2.871 11.518-8.714 15.567-13.867 2.632-3.35 5.118-6.513 7.725-8.258 2.653-1.777 6.558-2.88 10.692-4.048 6.275-1.773 13.387-3.783 18.639-9.035 5.251-5.251 7.26-12.363 9.034-18.637 1.168-4.134 2.271-8.039 4.048-10.692 1.745-2.607 4.909-5.093 8.259-7.724 5.154-4.05 10.995-8.64 13.868-15.567 2.821-6.801 1.957-14.111 1.195-20.559-.508-4.302-.988-8.364-.355-11.563.587-2.996 2.532-6.462 4.591-10.131zm-13.07-7.333c-2.543 4.531-5.172 9.217-6.228 14.557-1.091 5.517-.448 10.963.174 16.228.6 5.076 1.166 9.873-.156 13.061-1.371 3.306-5.215 6.326-9.284 9.523-4.122 3.239-8.384 6.588-11.453 11.171-3.098 4.629-4.582 9.878-6.016 14.954-1.066 3.771-2.031 9.058-4.921 11.935-3.047 3.034-8.418 4.264-12.404 5.391-8.17 2.309-15.107 4.989-20.926 11.22-1.851 1.981-3.525 4.118-5.199 6.248-3.197 4.069-6.217 7.913-9.524 9.284-3.188 1.32-7.984.755-13.06.155-8.147-.963-15.674-1.231-23.304 2.154-2.572 1.141-5.03 2.525-7.482 3.901-4.549 2.552-8.845 4.963-12.525 4.963s-7.977-2.411-12.526-4.963c-4.532-2.542-9.217-5.172-14.558-6.229-2.166-.428-4.32-.589-6.458-.589-3.306 0-6.571.385-9.769.763-5.076.6-9.872 1.167-13.06-.155-3.307-1.372-6.327-5.215-9.525-9.285-3.238-4.122-6.587-8.384-11.171-11.452-4.628-3.098-9.876-4.581-14.952-6.015-4.952-1.399-9.628-2.721-12.118-5.211-2.489-2.489-3.81-7.164-5.209-12.116-1.434-5.076-2.918-10.325-6.016-14.954-3.068-4.583-7.33-7.931-11.452-11.17-4.07-3.197-7.913-6.218-9.284-9.524-1.322-3.188-.756-7.983-.156-13.061.622-5.266 1.265-10.71.174-16.227-1.056-5.34-3.686-10.026-6.228-14.557-2.552-4.55-4.963-8.845-4.963-12.526s2.411-7.976 4.963-12.525c2.543-4.532 5.172-9.218 6.228-14.558 1.092-5.518.448-10.964-.174-16.229-.6-5.076-1.166-9.872.155-13.059 1.371-3.307 5.215-6.327 9.285-9.525 4.121-3.239 8.383-6.588 11.452-11.17 3.098-4.629 4.582-9.878 6.016-14.955 1.075-3.808 1.216-7.918 4.01-10.97 3.465-3.785 8.569-5.015 13.317-6.357 5.076-1.434 10.325-2.917 14.953-6.015 4.584-3.07 7.933-7.331 11.171-11.452 3.198-4.07 6.218-7.914 9.525-9.285 3.188-1.32 7.982-.754 13.06-.155 2.798.33 5.604.667 8.424.744 8.298.225 15.249-2.807 22.362-6.797 2.409-1.352 4.826-2.766 7.401-3.781 6.438-2.537 12.115.675 17.649 3.781 4.532 2.542 9.217 5.172 14.558 6.229 5.518 1.092 10.963.448 16.227-.174 5.077-.6 9.873-1.167 13.061.156 3.306 1.37 6.326 5.214 9.524 9.284 3.239 4.122 6.587 8.384 11.171 11.452 4.628 3.098 9.877 4.582 14.954 6.016 4.951 1.398 9.628 2.72 12.116 5.209 2.489 2.489 3.81 7.165 5.21 12.117 3.154 11.164 8.249 18.879 17.468 26.124 2.864 2.251 7.428 5.718 9.042 9.036 1.944 3.996.892 9.367.398 13.548-.622 5.266-1.266 10.71-.174 16.227 1.056 5.341 3.686 10.027 6.229 14.559 2.552 4.549 4.963 8.844 4.963 12.525s-2.412 7.976-4.965 12.526z"/><path d="m349.742 194.944c-66.416 0-120.45 54.034-120.45 120.45s54.034 120.45 120.45 120.45c33.826 0 66.295-14.353 89.083-39.378 2.787-3.06 2.565-7.8-.495-10.586-3.059-2.786-7.799-2.564-10.586.496-19.954 21.914-48.385 34.482-78.002 34.482-58.153 0-105.463-47.31-105.463-105.463s47.311-105.463 105.463-105.463 105.463 47.31 105.463 105.463c0 15.089-3.117 29.655-9.266 43.293-1.701 3.773-.021 8.209 3.752 9.91 3.772 1.702 8.209.022 9.91-3.751 7.027-15.587 10.589-32.225 10.589-49.452.002-66.417-54.032-120.451-120.448-120.451z"/><path d="m323.722 378.013c.947.397 1.93.585 2.896.585 2.928 0 5.709-1.727 6.913-4.595l47.786-113.863c1.602-3.816-.194-8.207-4.01-9.809-3.816-1.599-8.207.194-9.809 4.01l-47.786 113.863c-1.601 3.815.194 8.207 4.01 9.809z"/><path d="m342.67 275.246c0-17.661-12.833-32.028-28.607-32.028s-28.608 14.368-28.608 32.028 12.833 32.029 28.608 32.029c15.774 0 28.607-14.368 28.607-32.029zm-28.607 17.043c-7.511 0-13.621-7.645-13.621-17.043 0-9.397 6.111-17.042 13.621-17.042 7.511 0 13.621 7.645 13.621 17.042 0 9.398-6.11 17.043-13.621 17.043z"/><path d="m386.966 385.125c15.774 0 28.608-14.369 28.608-32.03s-12.834-32.028-28.608-32.028-28.607 14.368-28.607 32.028 12.833 32.03 28.607 32.03zm0-49.071c7.511 0 13.621 7.645 13.621 17.042 0 9.398-6.111 17.043-13.621 17.043s-13.621-7.646-13.621-17.043 6.11-17.042 13.621-17.042z"/><path d="m76.588 263.458c1.918 0 3.835-.732 5.298-2.194l187.769-187.769 107.55 14.979-29.561 29.492c-2.93 2.923-2.935 7.667-.013 10.597 2.924 2.931 7.667 2.934 10.597.013l30.614-30.542 6.653 47.763c.571 4.099 4.349 6.963 8.455 6.389 4.099-.572 6.958-4.356 6.388-8.455l-8.211-58.95 28.94-28.872c4.332-4.318 10.08-6.657 16.202-6.571 6.116.081 11.806 2.566 16.022 6.997 8.37 8.794 8.303 22.508-.104 31.172l-35.156 35.569c-2.909 2.944-2.882 7.688.061 10.597 1.461 1.444 3.364 2.164 5.267 2.164 1.932 0 3.864-.743 5.33-2.226l35.205-35.618c14.079-14.509 14.191-37.346.254-51.991-7.021-7.377-16.497-11.514-26.68-11.648-.171-.002-.341-.004-.511-.004-9.993 0-19.375 3.875-26.47 10.947l-29.972 29.901-122.485-17.06c-2.331-.325-4.672.461-6.332 2.123l-190.409 190.405c-2.927 2.927-2.927 7.671 0 10.598 1.463 1.462 3.381 2.194 5.299 2.194z"/></g></g></svg>