              <svg id="sw-js-blob-svg" viewBox="0 0 100 100" xmlns="http://www.w3.org/2000/svg" version="1.1">
                    <defs> 
                        <linearGradient id="sw-gradient" x1="0" x2="1" y1="1" y2="0">
                            <stop id="stop1" stop-color="rgba(248, 117, 55, 1)" offset="0%"></stop>
                            <stop id="stop2" stop-color="#d64367" offset="100%"></stop>
                        </linearGradient>
                    </defs>
                <path fill="url(#sw-gradient)" d="M23,-24.9C30.5,-21.2,37.6,-14.5,38.5,-7.2C39.3,0.2,33.9,8.3,28.2,14.7C22.6,21,16.8,25.6,9.3,30.5C1.8,35.4,-7.4,40.5,-14,38.2C-20.5,35.9,-24.4,26.1,-29.5,17.1C-34.6,8.1,-40.8,-0.1,-39.6,-6.9C-38.3,-13.8,-29.6,-19.3,-21.7,-22.9C-13.9,-26.6,-6.9,-28.3,0.4,-28.8C7.8,-29.3,15.6,-28.6,23,-24.9Z" width="100%" height="100%" transform="translate(50 50)" stroke-width="0" style="transition: all 0.3s ease 0s;"></path>
              </svg>