<svg id="Capa_1" enable-background="new 0 0 512 512" height="512" viewBox="0 0 512 512" width="512" xmlns="http://www.w3.org/2000/svg"><g><g><path d="m88.882 348.556h-47.184c-18.887 0-34.198-15.311-34.198-34.198v-115.646c0-18.887 15.311-34.198 34.198-34.198h47.184l31.143 85.645z" fill="#f1e64c"/><path d="m116.122 319.646-27.237 28.902h-47.186c-18.883 0-34.199-15.307-34.199-34.19v-67.252c0 18.893 15.316 34.199 34.199 34.199h47.186z" fill="#f1ce64"/><path d="m234.477 428.695-145.595-80.139v-184.041l145.595-80.139 28.257 171.624z" fill="#687780"/><path d="m262.642 377.058-28.165 51.637-145.592-80.147v-67.243l145.592 21.571z" fill="#4e5959"/><path d="m262.734 256.387-.092.147.036-.229z" fill="#4e5959"/><path d="m262.734 470.449c-15.606 0-28.257-12.651-28.257-28.257v-372.384c0-15.606 12.651-28.257 28.257-28.257 15.606 0 28.257 12.651 28.257 28.257v372.384c0 15.606-12.651 28.257-28.257 28.257z" fill="#f1e64c"/><path d="m290.99 315.099v127.094c0 15.609-12.647 28.256-28.256 28.256s-28.256-12.647-28.256-28.256v-127.094c0 15.609 12.647 28.256 28.256 28.256s28.256-12.647 28.256-28.256z" fill="#f1ce64"/><g><path d="m499.614 282.53-26.53-26.53 26.53-26.53c6.515-6.515 6.515-17.078 0-23.593l-24.027-24.027c-6.515-6.515-17.078-6.515-23.593 0l-26.53 26.53-26.53-26.53c-6.515-6.515-17.077-6.515-23.592 0l-24.027 24.027c-6.515 6.515-6.515 17.078 0 23.593l26.53 26.53-26.529 26.529c-6.515 6.515-6.515 17.078 0 23.593l24.027 24.027c6.515 6.515 17.077 6.515 23.593 0l26.529-26.529 26.53 26.53c6.515 6.515 17.078 6.515 23.593 0l24.027-24.027c6.514-6.516 6.514-17.078-.001-23.593z" fill="#e1e9ee"/><g fill="#d4e1e6"><path d="m375.231 306.122c-6.515-6.514-6.515-17.077 0-23.592l26.53-26.53-26.529-26.53c-6.515-6.515-6.515-17.078 0-23.593l23.865-23.865-.162-.161c-6.515-6.515-17.078-6.515-23.592-.001l-24.027 24.027c-6.515 6.515-6.515 17.078 0 23.593l26.529 26.53-26.529 26.529c-6.515 6.515-6.515 17.078 0 23.592l24.027 24.027c6.515 6.515 17.078 6.515 23.593 0l.161-.161z"/><path d="m437.422 220.339 38.326-38.326-.162-.162c-6.515-6.514-17.078-6.514-23.593.001l-26.53 26.53z"/><path d="m437.422 291.662-11.958 11.958 26.53 26.529c6.515 6.515 17.078 6.515 23.593 0l.161-.161z"/></g></g></g><g><path d="m262.734 34.051c-19.717 0-35.757 16.041-35.757 35.757v10.135l-140.014 77.067h-45.263c-22.994 0-41.7 18.707-41.7 41.7v69.11c0 4.142 3.358 7.5 7.5 7.5s7.5-3.358 7.5-7.5v-69.11c0-14.723 11.978-26.7 26.7-26.7h39.68v169.05h-39.68c-14.723 0-26.7-11.978-26.7-26.7v-16.54c0-4.142-3.358-7.5-7.5-7.5s-7.5 3.358-7.5 7.5v16.54c0 22.994 18.707 41.7 41.7 41.7h45.261l140.016 77.068v9.064c0 19.716 16.041 35.757 35.757 35.757s35.757-16.041 35.757-35.757v-372.384c0-19.717-16.04-35.757-35.757-35.757zm-166.352 310.072v-175.175l130.595-71.883v318.94zm187.109 98.069c0 11.445-9.312 20.757-20.757 20.757-11.446 0-20.757-9.312-20.757-20.757v-372.384c0-11.445 9.312-20.757 20.757-20.757s20.757 9.312 20.757 20.757z"/><path d="m483.687 256 21.224-21.223c4.572-4.566 7.09-10.639 7.09-17.103 0-6.463-2.518-12.537-7.085-17.097l-24.031-24.041c-3.715-3.7-8.402-6.055-13.559-6.808-4.099-.603-7.907 2.237-8.506 6.336-.6 4.099 2.237 7.907 6.336 8.506 1.947.285 3.725 1.181 5.13 2.582l24.025 24.035c1.734 1.731 2.689 4.036 2.689 6.488 0 2.453-.955 4.757-2.693 6.492l-26.53 26.53c-1.406 1.406-2.196 3.314-2.196 5.303s.79 3.897 2.196 5.303l26.534 26.534c1.734 1.731 2.689 4.036 2.689 6.488s-.955 4.756-2.694 6.493l-24.016 24.025c-3.586 3.581-9.418 3.579-12.996.004l-26.53-26.53c-1.407-1.407-3.315-2.197-5.305-2.197s-3.896.791-5.304 2.198l-26.514 26.524c-3.586 3.579-9.417 3.58-12.997.005l-24.025-24.035c-1.734-1.731-2.689-4.036-2.689-6.487 0-2.452.955-4.756 2.694-6.492l26.529-26.53c2.929-2.929 2.929-7.678 0-10.606l-26.534-26.534c-1.734-1.731-2.689-4.036-2.689-6.488s.955-4.756 2.695-6.493l24.014-24.024c3.585-3.581 9.418-3.578 12.997-.005l26.52 26.53c1.407 1.407 3.314 2.198 5.304 2.198h.001c1.989 0 3.896-.79 5.304-2.197l15.92-15.92c2.929-2.929 2.929-7.678 0-10.606-2.93-2.929-7.678-2.929-10.607 0l-10.615 10.616-21.222-21.23c-9.429-9.413-24.77-9.413-34.204.005l-24.014 24.024c-4.573 4.566-7.092 10.64-7.092 17.103s2.519 12.537 7.087 17.099l21.225 21.225-21.222 21.222c-4.573 4.566-7.092 10.64-7.092 17.103s2.519 12.537 7.086 17.097l24.025 24.035c9.428 9.412 24.769 9.415 34.204-.005l21.216-21.225 21.229 21.229c4.714 4.707 10.905 7.061 17.098 7.061 6.194 0 12.389-2.355 17.106-7.065l24.016-24.025c4.572-4.565 7.09-10.639 7.09-17.102s-2.518-12.537-7.086-17.099z"/></g></g></svg>