<svg id="Layer_1" enable-background="new 0 0 512.115 512.115" height="512" viewBox="0 0 512.115 512.115" width="512" xmlns="http://www.w3.org/2000/svg"><g><circle cx="256.057" cy="256.057" fill="#edebfd" r="248"/><path d="m236.057 8.862c127.613 10.185 228 116.962 228 247.195s-100.387 237.01-228 247.195c144.723 11.545 268-102.541 268-247.195 0-144.535-123.157-258.755-268-247.195z" fill="#d2d2fc"/><path d="m370.656 280.798-163.244 106.463c-4.799 3.13-10.405 4.796-16.135 4.796h-1.683c-16.313 0-29.537-13.224-29.537-29.537v-212.926c0-16.313 13.224-29.537 29.537-29.537 6.182 0 11.711.813 17.818 4.796l163.244 106.463c17.801 11.611 17.906 37.804 0 49.482z" fill="#79cb9c"/><path d="m370.656 231.317-163.244-106.463c-10.236-6.676-23.921-6.047-32.996-.599 1.418.847-12.589-8.261 164.24 107.063 8.361 5.453 13.402 14.759 13.402 24.74 0 9.981-5.041 19.288-13.402 24.74-176.839 115.33-162.815 106.211-164.24 107.063 10.108 6.068 23.738 5.439 32.996-.599l163.244-106.463c8.361-5.453 13.402-14.759 13.402-24.74-.001-9.983-5.042-19.289-13.402-24.742z" fill="#63ac7d"/><path d="m375.026 224.616-163.243-106.462c-23.85-15.559-59.726-.254-59.726 31.44v212.926c0 20.698 16.839 37.537 37.537 37.537 7.669 0 14.674-1.195 22.188-6.096l163.243-106.463c22.717-14.814 22.685-48.088.001-62.882zm-8.74 49.481-163.245 106.463c-4.622 3.016-8.585 3.497-13.447 3.497-11.875 0-21.537-9.661-21.537-21.537v-212.925c0-11.876 9.661-21.537 21.537-21.537 4.873 0 8.831.485 13.448 3.498l163.244 106.463c13.032 8.498 13.015 27.59 0 36.078z"/><path d="m437.077 75.038c-100.045-100.044-261.981-100.057-362.039 0-100.043 100.044-100.058 261.98 0 362.039 100.045 100.044 261.981 100.057 362.039 0 100.043-100.044 100.058-261.98 0-362.039zm-181.02 421.019c-132.336 0-240-107.664-240-240s107.664-240 240-240 240 107.664 240 240-107.663 240-240 240z"/></g></svg>