<svg id="Capa_1" enable-background="new 0 0 512 512" height="512" viewBox="0 0 512 512" width="512" xmlns="http://www.w3.org/2000/svg"><g><g><path d="m86.302 345.621h-45.688c-18.288 0-33.114-14.825-33.114-33.114v-111.978c0-18.288 14.825-33.114 33.114-33.114h45.688l30.156 82.929z" fill="#f1e64c"/><path d="m110.041 313.225-23.736 32.389h-45.69c-18.285 0-33.115-14.821-33.115-33.106v-65.12c0 18.294 14.83 33.115 33.115 33.115h45.69z" fill="#f1ce64"/><path d="m227.281 423.22-140.979-77.599v-178.206l140.979-77.598 27.361 166.183z" fill="#687780"/><path d="m251.089 363.022-23.808 60.198-140.976-77.606v-65.111l140.976 20.887z" fill="#4e5959"/><path d="m254.641 256.375-.088.142.035-.222z" fill="#4e5959"/><path d="m254.642 463.65c-15.111 0-27.361-12.25-27.361-27.361v-360.578c0-15.111 12.25-27.361 27.361-27.361 15.111 0 27.361 12.25 27.361 27.361v360.578c0 15.111-12.25 27.361-27.361 27.361z" fill="#f1e64c"/><path d="m282.002 313.225v123.065c0 15.114-12.246 27.361-27.36 27.361s-27.36-12.246-27.36-27.361v-123.065c0 15.114 12.246 27.361 27.36 27.361 15.114-.001 27.36-12.247 27.36-27.361z" fill="#f1ce64"/><path d="m420.919 422.324c-6.458 0-12.914-2.463-17.842-7.39-9.853-9.854-9.853-25.829 0-35.683 32.861-32.861 50.959-76.632 50.959-123.251s-18.098-90.39-50.959-123.251c-9.853-9.854-9.853-25.829 0-35.683 9.854-9.853 25.829-9.853 35.683 0 42.394 42.392 65.74 98.836 65.74 158.934s-23.346 116.542-65.739 158.934c-4.926 4.926-11.385 7.39-17.842 7.39z" fill="#e1e9ee"/><path d="m351.142 352.546c-6.458 0-12.914-2.463-17.842-7.39-9.853-9.854-9.853-25.829 0-35.683 14.284-14.283 22.15-33.273 22.15-53.473 0-20.199-7.866-39.19-22.15-53.473-9.853-9.854-9.853-25.829 0-35.683 9.854-9.853 25.829-9.853 35.683 0 23.814 23.814 36.93 55.478 36.93 89.156 0 33.679-13.116 65.342-36.93 89.156-4.926 4.926-11.384 7.39-17.841 7.39z" fill="#e1e9ee"/><g fill="#d4e1e6"><path d="m426.123 414.927c1.907 1.908 4.037 3.452 6.308 4.612-3.603 1.857-7.559 2.786-11.516 2.786-6.449 0-12.908-2.463-17.834-7.398-9.861-9.85-9.861-25.827 0-35.678 32.862-32.862 50.958-76.634 50.958-123.252s-18.096-90.39-50.958-123.251c-9.861-9.851-9.861-25.827 0-35.688 7.943-7.943 19.872-9.477 29.36-4.602-2.281 1.161-4.411 2.695-6.318 4.602-9.85 9.861-9.85 25.837 0 35.688 32.862 32.861 50.958 76.633 50.958 123.251s-18.096 90.39-50.958 123.252c-9.851 9.851-9.851 25.828 0 35.678z"/><path d="m356.352 345.157c1.908 1.907 4.037 3.441 6.318 4.602-3.603 1.857-7.569 2.785-11.526 2.785-6.459 0-12.919-2.463-17.844-7.388-9.85-9.861-9.85-25.837 0-35.688 14.281-14.281 22.153-33.275 22.153-53.471 0-20.206-7.872-39.189-22.153-53.471-9.85-9.861-9.85-25.837 0-35.687 7.943-7.943 19.882-9.487 29.369-4.602-2.281 1.161-4.41 2.695-6.318 4.602-9.861 9.851-9.861 25.827 0 35.687 14.281 14.281 22.143 33.265 22.143 53.471 0 20.196-7.862 39.19-22.143 53.471-9.86 9.852-9.86 25.828.001 35.689z"/></g></g><g><path d="m254.642 40.85c-19.222 0-34.86 15.639-34.86 34.861v9.676l-135.4 74.528h-43.769c-22.394 0-40.613 18.219-40.613 40.614v111.979c0 22.395 18.219 40.614 40.613 40.614h43.761l26.409 14.539c3.631 1.998 8.19.675 10.188-2.953 1.997-3.629.675-8.19-2.953-10.188l-24.216-13.331v-169.337l125.979-69.343v308.021l-75.524-41.571c-3.627-1.997-8.188-.674-10.187 2.954-1.997 3.629-.675 8.19 2.954 10.187l82.758 45.553v8.636c0 19.222 15.639 34.861 34.86 34.861 19.223 0 34.861-15.639 34.861-34.861v-360.578c0-19.222-15.639-34.861-34.861-34.861zm-239.642 271.658v-111.979c0-14.124 11.49-25.614 25.613-25.614h38.187v163.207h-38.187c-14.123 0-25.613-11.491-25.613-25.614zm259.503 123.781c0 10.951-8.91 19.861-19.861 19.861s-19.86-8.91-19.86-19.861v-360.578c0-10.951 8.909-19.861 19.86-19.861s19.861 8.91 19.861 19.861z"/><path d="m493.603 164.996c-1.622-3.813-6.031-5.587-9.837-3.967-3.812 1.621-5.588 6.024-3.968 9.836 11.415 26.845 17.202 55.489 17.202 85.135 0 58.092-22.566 112.651-63.544 153.627-3.349 3.349-7.801 5.193-12.536 5.193-4.742 0-9.192-1.842-12.539-5.196-3.351-3.347-5.196-7.798-5.196-12.534 0-4.735 1.846-9.187 5.199-12.537 34.278-34.278 53.156-79.932 53.156-128.553s-18.878-94.275-53.159-128.556c-3.351-3.347-5.196-7.798-5.196-12.534 0-4.735 1.846-9.187 5.201-12.54 3.348-3.35 7.799-5.195 12.534-5.195s9.187 1.845 12.538 5.2c12.855 12.845 24.037 27.198 33.236 42.66 2.118 3.56 6.721 4.728 10.28 2.61 3.56-2.118 4.729-6.72 2.61-10.28-9.836-16.532-21.788-31.875-35.52-45.596-6.18-6.187-14.4-9.595-23.146-9.595s-16.965 3.408-23.141 9.589c-6.188 6.181-9.595 14.401-9.595 23.146 0 8.746 3.407 16.965 9.592 23.144 31.449 31.446 48.766 73.333 48.766 117.947s-17.317 86.501-48.761 117.944c-6.188 6.181-9.595 14.401-9.595 23.146 0 8.746 3.407 16.965 9.587 23.138 6.173 6.186 14.394 9.592 23.148 9.592 8.742 0 16.961-3.404 23.144-9.586 43.81-43.81 67.937-102.136 67.937-164.234 0-31.674-6.189-62.292-18.397-91.004z"/><path d="m374.286 161.541c-12.762-12.761-33.527-12.761-46.289 0s-12.762 33.527.001 46.29c12.866 12.866 19.952 29.973 19.952 48.169s-7.086 35.303-19.953 48.169c-12.762 12.762-12.762 33.527 0 46.29 6.182 6.182 14.401 9.587 23.145 9.587s16.964-3.405 23.146-9.587c25.23-25.231 39.126-58.777 39.126-94.459-.001-35.682-13.896-69.229-39.128-94.459zm-10.606 178.312c-3.349 3.349-7.801 5.193-12.538 5.193-4.736 0-9.188-1.844-12.537-5.193-6.914-6.914-6.914-18.163-.001-25.077 15.7-15.699 24.347-36.573 24.347-58.776s-8.646-43.077-24.346-58.776c-6.914-6.914-6.914-18.163 0-25.077 3.456-3.457 7.997-5.185 12.537-5.185 4.541 0 9.082 1.728 12.538 5.185 22.398 22.397 34.733 52.177 34.733 83.853 0 31.675-12.335 61.455-34.733 83.853z"/></g></g></svg>